<svg height="512pt" viewBox="-92 0 512 512" width="512pt" xmlns="http://www.w3.org/2000/svg"><path d="m33.746094 118.753906h260.289062v82.683594h-260.289062zm0 0" fill="#f4d34d"/><path d="m319.496094 390.882812v68.691407c0 5.457031-3.128906 10.410156-8.03125 12.796875-41.53125 20.207031-92.664063 32.128906-147.964844 32.128906s-106.433594-11.921875-147.960938-32.128906c-4.90625-2.386719-8.035156-7.34375-8.035156-12.796875v-68.691407c0-9.050781 5.351563-17.246093 13.632813-20.902343l69.480469-30.625c8.128906-3.578125 13.382812-11.640625 13.382812-20.527344v-74.871094h119.003906v74.871094c0 8.886719 5.25 16.949219 13.378906 20.527344l69.480469 30.625c8.28125 3.65625 13.632813 11.851562 13.632813 20.902343zm0 0" fill="#f7bc94"/><path d="m305.863281 369.980469-69.480469-30.625c-8.128906-3.578125-13.382812-11.640625-13.382812-20.527344v-74.871094h-119v13h96.003906v74.871094c0 8.886719 5.25 16.949219 13.378906 20.527344l69.480469 30.625c8.285157 3.65625 13.632813 11.851562 13.632813 20.902343v68.691407c0 2.667969-.753906 5.214843-2.089844 7.398437 5.84375-2.382812 11.539062-4.917968 17.058594-7.601562 4.902344-2.386719 8.03125-7.34375 8.03125-12.796875v-68.691407c0-9.050781-5.351563-17.246093-13.632813-20.902343zm0 0" fill="#e59876"/><path d="m223 309.824219v-65.867188h-119v55.386719c16.890625 17.667969 36.65625 30.15625 51.84375 30.15625h26.382812c11.964844 0 26.769532-7.75 40.773438-19.675781zm0 0" fill="#e59876"/><path d="m319.5 390.878906v68.699219c0 5.453125-3.128906 10.402344-8.039062 12.792969-41.519532 20.207031-92.660157 32.128906-147.960938 32.128906s-106.441406-11.921875-147.960938-32.128906c-4.910156-2.390625-8.039062-7.339844-8.039062-12.792969v-68.699219c0-9.050781 5.351562-17.238281 13.640625-20.898437l69.480469-30.621094c2.070312-.910156 3.957031-2.121094 5.617187-3.558594l67.261719 65.699219 67.261719-65.699219c1.660156 1.4375 3.546875 2.648438 5.617187 3.558594l69.480469 30.621094c8.289063 3.660156 13.640625 11.847656 13.640625 20.898437zm0 0" fill="#3872b7"/><path d="m311.460938 472.371094c4.910156-2.390625 8.039062-7.339844 8.039062-12.792969v-68.699219c0-9.050781-5.351562-17.238281-13.640625-20.898437l-69.480469-30.621094c-2.070312-.910156-3.957031-2.121094-5.617187-3.558594l-20.070313 19.601563c32.582032 21.882812 62.644532 59.71875 62.644532 79.238281v53.03125c13.417968-4.355469 26.171874-9.484375 38.125-15.300781zm0 0" fill="#80b9f9"/><path d="m307.378906 370.71875c-1.265625-.675781-1.761718-.828125-7.859375-3.53125-57.351562-26.175781-63.042969-26.472656-68.761719-31.386719l-17.082031 16.683594 69.1875 30.496094c8.28125 3.65625 13.632813 11.851562 13.632813 20.902343-.71875 70.523438 1.617187 70.023438-2.089844 76.085938 3.703125-1.511719 17.589844-7.257812 20.535156-9.988281 2.851563-2.648438 4.554688-6.390625 4.554688-10.40625v-68.695313c0-8.722656-4.960938-16.351562-12.117188-20.160156zm0 0" fill="#3185db"/><path d="m96.238281 335.800781c-1.660156 1.4375-3.546875 2.648438-5.617187 3.558594l-69.480469 30.621094c-8.289063 3.660156-13.640625 11.847656-13.640625 20.898437v68.699219c0 5.453125 3.128906 10.402344 8.039062 12.792969 11.953126 5.816406 24.707032 10.945312 38.125 15.300781v-53.03125c0-19.519531 30.0625-57.355469 62.644532-79.238281zm0 0" fill="#80b9f9"/><g fill="#f7bc94"><path d="m271.214844 178.617188h-28.785156v59.503906h28.785156c12.601562 0 22.820312-10.21875 22.820312-22.820313v-13.863281c0-12.601562-10.21875-22.820312-22.820312-22.820312zm0 0"/><path d="m55.785156 178.617188h28.785156v59.503906h-28.785156c-12.601562 0-22.820312-10.21875-22.820312-22.820313v-13.863281c0-12.601562 10.21875-22.820312 22.820312-22.820312zm0 0"/><path d="m264.074219 207.027344c0 42.996094-54.460938 101.660156-87.382813 101.660156h-26.382812c-32.921875 0-87.386719-58.664062-87.386719-101.660156l.097656-117.363282h200.960938zm0 0"/></g><path d="m263.980469 89.664062h-25.230469l.085938 117.363282c0 42.996094-47.628907 101.660156-76.421876 101.660156h14.277344c32.921875 0 87.382813-58.664062 87.382813-101.660156zm0 0" fill="#e59876"/><path d="m53.5 129.441406 16.964844 19.242188c3.722656 4.222656 9.308594 6.304687 14.890625 5.558594 52.097656-6.988282 104.195312-6.988282 156.289062 0 5.582031.746093 11.167969-1.335938 14.890625-5.558594l16.964844-19.242188zm0 0" fill="#233b5e"/><path d="m32.964844 105.847656v23.59375h261.070312v-23.59375c0-54.316406-42.824218-98.347656-95.648437-98.347656h-69.773438c-52.824219 0-95.648437 44.03125-95.648437 98.347656zm0 0" fill="#52668e"/><path d="m198.386719 7.5h-27.261719c52.824219 0 95.648438 44.03125 95.648438 98.347656v23.59375h27.261718v-23.59375c0-54.316406-42.824218-98.347656-95.648437-98.347656zm0 0" fill="#233b5e"/><path d="m256.539062 348.238281-37.195312 54.683594c-2.996094 4.40625-9.058594 5.425781-13.332031 2.246094l-26.261719-19.539063 51.011719-49.828125c1.660156 1.4375 3.546875 2.648438 5.617187 3.558594zm0 0" fill="#ef9543"/><path d="m244.429688 366.042969 12.109374-17.804688c-10.550781-5.03125-20.722656-8.089843-25.777343-12.4375l-17.082031 16.683594zm0 0" fill="#ce6632"/><path d="m147.25 385.628906-26.261719 19.539063c-4.273437 3.179687-10.335937 2.160156-13.332031-2.246094l-37.195312-54.683594 20.160156-8.878906c2.070312-.910156 3.957031-2.121094 5.617187-3.558594zm0 0" fill="#ef9543"/><path d="m319.5 407.671875c4.140625 0 7.5-3.359375 7.5-7.5v-9.292969c0-12.007812-7.109375-22.902344-18.117188-27.761718-13.058593-5.757813 34.765626 15.320312-69.488281-30.625-.222656-.097657-.441406-.203126-.65625-.308594 4.816407-2.140625 9.101563-5.441406 12.480469-9.730469l43.253906-54.890625c4.554688-5.78125 7.0625-13.015625 7.0625-20.375v-141.339844c0-13.148437-2.320312-25.976562-6.898437-38.136718-1.460938-3.878907-5.789063-5.839844-9.664063-4.375-3.875 1.457031-5.835937 5.785156-4.375 9.660156 3.9375 10.464844 5.9375 21.515625 5.9375 32.851562v16.097656h-246.070312v-16.097656c0-50.09375 39.542968-90.847656 88.148437-90.847656h69.773438c25.875 0 50.351562 11.660156 67.144531 31.988281 2.640625 3.191407 7.367188 3.640625 10.558594 1.003907 3.195312-2.640626 3.644531-7.367188 1.007812-10.558594-19.65625-23.789063-48.34375-37.433594-78.710937-37.433594h-69.773438c-56.875 0-103.144531 47.480469-103.144531 105.847656v141.339844c0 7.359375 2.507812 14.59375 7.0625 20.375l43.253906 54.894531c3.375 4.285157 7.660156 7.589844 12.480469 9.726563-.21875.109375-.441406.214844-.667969.3125-104.460937 46.039062-54.609375 24.070312-69.484375 30.625-11.003906 4.855468-18.113281 15.75-18.113281 27.757812v68.699219c0 8.242187 4.8125 15.910156 12.257812 19.535156 44.199219 21.515625 96.5 32.886719 151.242188 32.886719s107.042969-11.371094 151.242188-32.886719c7.445312-3.625 12.257812-11.292969 12.257812-19.535156v-29.40625c0-4.144531-3.359375-7.5-7.5-7.5s-7.5 3.355469-7.5 7.5v29.40625c0 2.582031-1.464844 4.898437-3.820312 6.050781-8.792969 4.277344-17.925782 8.132813-27.351563 11.5625v-42.550781c0-11.699219-9.0625-32.96875-34.113281-58.621094l12.511718-18.394531 43.605469 19.21875c5.566407 2.457031 9.167969 7.96875 9.167969 14.035156v9.292969c0 4.140625 3.359375 7.5 7.5 7.5zm-237.769531-56.199219 11.910156-5.25c.570313-.25 1.128906-.515625 1.675781-.796875.007813-.007812.019532-.011719.027344-.015625l40.378906 39.445313c-19.667968 14.257812-19.097656 14.902343-20.632812 14.636719-1.5625-.261719.625 1.371093-33.359375-48.019532zm37.136719-46.152344 4.640624 14.679688h-12.03125c.015626-.390625.023438-.777344.023438-1.171875v-18.578125c2.464844 1.839844 4.921875 3.53125 7.367188 5.070312zm-.222657-50.476562v-32.042969h89.710938v32.042969l-12.789063 40.460938c-6.957031 3.796874-13.453125 5.886718-18.875 5.886718h-26.382812c-5.421875 0-11.917969-2.09375-18.875-5.886718zm-59.066406-24.222656h-3.789063c-5.722656 0-10.726562-3.15625-13.355468-7.820313h14.925781c.601563 2.566407 1.339844 5.175781 2.21875 7.820313zm-19.109375-22.820313v-6.359375c0-8.332031 6.683594-15.128906 14.96875-15.316406l-.015625 20.90625c0 .253906 0 .511719.003906.769531zm29.953125-.765625.023437-28.15625c.003907-.085937.003907-.171875.003907-.257812 0-.085938 0-.167969-.003907-.25l.019532-20.015625c4.722656 2.875 10.304687 4.066406 15.886718 3.320312 51.191407-6.867187 103.101563-6.867187 154.296876 0 5.605468.753907 11.191406-.460937 15.886718-3.320312l.019532 20.015625c-.003907.082031-.007813.164062-.007813.25 0 .085937.003906.171875.007813.257812l.023437 28.152344c0 .253906-.003906.511719-.007813.769531h-186.144531c-.003906-.253906-.003906-.511719-.003906-.765625zm145.101563 112.964844h-12.03125l4.640624-14.679688c2.445313-1.539062 4.902344-3.230468 7.367188-5.070312v18.578125c0 .394531.007812.78125.023438 1.171875zm11.589843-50.988281c-2.917969 3.296875-5.90625 6.398437-8.921875 9.273437-.238281.199219-.464844.414063-.675781.640625-.488281.460938-.980469.914063-1.46875 1.363281l6.960937-22.027343c.230469-.734375.347657-1.496094.347657-2.261719v-33.199219h30.757812c-4.261719 14.734375-13.820312 31.316407-27 46.210938zm42.5-46.210938h14.953125c-5.492187 9.738281-15.769531 7.515625-17.179687 7.820313.878906-2.640625 1.621093-5.25 2.226562-7.820313zm16.917969-15h-14.957031c.003906-.261719.003906-.519531.003906-.777343l-.015625-20.898438c8.285156.1875 14.96875 6.984375 14.96875 15.316406zm-136.222656 108.390625h26.382812c4.078125 0 8.421875-.71875 12.9375-2.101562l-1.867187 5.910156h-48.523438l-1.867187-5.910156c4.515625 1.382812 8.859375 2.101562 12.9375 2.101562zm-43.785156 19.167969c.078124-.117187.15625-.238281.234374-.359375h113.484376c.074218.121094.15625.242188.234374.359375l-56.976562 55.65625zm176.164062-77.082031-43.25 54.894531c-2.324219 2.949219-5.441406 5.042969-8.929688 6.082031-.003906-.140625-.007812-.28125-.007812-.425781v-31.570313c2.644531-2.617187 5.261719-5.386718 7.847656-8.308593 9.457032-10.6875 17.179688-22.070313 22.792969-33.328125h10.066406c5.589844 0 10.824219-1.519532 15.324219-4.167969v5.734375c.003906 4.007812-1.363281 7.945312-3.84375 11.089844zm3.847656-82.992188c-4.410156-2.59375-9.527344-4.101562-14.988281-4.164062l-.023437-28.09375 5.363281-6.082032h9.648437zm-29.648437-38.34375c-4.253907 3.929688-6.925781 10.855469-14.242188 9.867188-52.515625-7.046875-105.773437-7.046875-158.289062 0-7.324219.988281-9.925781-5.878906-14.242188-9.867188zm-206.773438 0 5.363281 6.085938-.023437 28.09375c-5.460937.0625-10.578125 1.570312-14.988281 4.164062v-38.34375zm-5.800781 121.335938c-2.480469-3.144532-3.847656-7.082032-3.847656-11.089844v-5.734375c4.5 2.648437 9.738281 4.167969 15.324218 4.167969h10.050782c1.296875 2.59375 2.714844 5.203125 4.246094 7.824218 1.394531 2.386719 3.902343 3.714844 6.480468 3.714844 1.285156 0 2.589844-.332031 3.777344-1.023437 3.578125-2.09375 4.78125-6.6875 2.691406-10.261719-4.175781-7.140625-7.890625-15.027344-10.195312-23.074219h30.800781v33.199219c0 .765625.121094 1.527344.351563 2.261719l6.960937 22.027343c-3.875-3.542968-7.589844-7.347656-11.066406-11.277343-2.742188-3.105469-7.484375-3.394531-10.585938-.648438-3.101562 2.746094-3.394531 7.484375-.648437 10.585938 2.582031 2.921875 5.203125 5.691406 7.847656 8.308593v31.570313c0 .144531-.003906.285156-.007812.425781-3.488282-1.039062-6.605469-3.132812-8.929688-6.082031zm-29.3125 201.300781v-68.699219c0-6.066406 3.597656-11.578125 9.164062-14.035156l43.609376-19.21875 12.511718 18.394531c-25.046875 25.652344-34.113281 46.921875-34.113281 58.621094v42.546875c-9.425781-3.425781-18.558594-7.285156-27.351563-11.5625-2.355468-1.144531-3.820312-3.464844-3.820312-6.046875zm250.828125-24.9375v47.566406c-31.816406 9.738281-66.5 14.792969-102.328125 14.792969s-70.511719-5.054688-102.328125-14.792969v-47.566406c0-9.929687 11.34375-28.457031 27.75-45.925781l12.53125 18.425781c3.035156 4.460937 8.214844 7.378906 13.917969 7.378906 9.15625 0 11.976562-5.777343 31.222656-19.050781l11.667969 11.398438c2.914062 2.847656 7.566406 2.84375 10.480469 0l11.667968-11.398438c19.835938 13.6875 23.269532 20.617188 33.992188 18.816406 4.507812-.757812 8.570312-3.363281 11.144531-7.144531l12.53125-18.425781c16.40625 17.46875 27.75 35.996094 27.75 45.925781zm-55.339844-35.488281-19.214843-14.296875 40.382812-39.445313c.007812.003906.019531.011719.027344.015625.121094.0625.246094.125.367187.1875.011719.003907.023438.007813.035157.015625.132812.066406.269531.132813.40625.199219l.011718.003906c.28125.136719.566406.265625.851563.390625l11.914062 5.25c-33.398437 48.542969-32.382812 49.460938-34.78125 47.679688zm0 0"/><path d="m119.632812 186.003906c-4.140624 0-7.5 3.355469-7.5 7.5v3.15625c0 4.144532 3.359376 7.5 7.5 7.5 4.140626 0 7.5-3.355468 7.5-7.5v-3.15625c0-4.144531-3.359374-7.5-7.5-7.5zm0 0"/><path d="m207.367188 186.003906c-4.140626 0-7.5 3.355469-7.5 7.5v3.15625c0 4.144532 3.359374 7.5 7.5 7.5 4.140624 0 7.5-3.355468 7.5-7.5v-3.15625c0-4.144531-3.359376-7.5-7.5-7.5zm0 0"/><path d="m193.066406 179.265625c9.109375-4.472656 17.96875-4.472656 27.078125 0 1.0625.523437 2.191407.769531 3.300781.769531 2.769532 0 5.433594-1.539062 6.738282-4.195312 1.824218-3.71875.289062-8.210938-3.425782-10.035156-13.371093-6.566407-26.929687-6.566407-40.300781 0-3.71875 1.824218-5.253906 6.316406-3.429687 10.035156 1.828125 3.71875 6.320312 5.25 10.039062 3.425781zm0 0"/><path d="m133.933594 179.265625c1.0625.523437 2.191406.769531 3.300781.769531 2.773437 0 5.4375-1.539062 6.738281-4.195312 1.824219-3.71875.292969-8.210938-3.425781-10.035156-13.371094-6.566407-26.929687-6.566407-40.300781 0-3.71875 1.824218-5.253906 6.316406-3.425782 10.035156 1.824219 3.71875 6.316407 5.253906 10.035157 3.429687 9.109375-4.476562 17.96875-4.476562 27.078125-.003906zm0 0"/><path d="m189.933594 240.777344c3.40625-2.355469 4.25-7.03125 1.890625-10.433594-2.359375-3.40625-7.03125-4.253906-10.4375-1.890625-5.351563 3.707031-11.535157 5.671875-17.886719 5.671875s-12.535156-1.964844-17.886719-5.671875c-3.40625-2.363281-8.078125-1.515625-10.4375 1.890625-2.359375 3.402344-1.515625 8.074219 1.890625 10.433594 7.871094 5.460937 17.011719 8.347656 26.433594 8.347656s18.5625-2.886719 26.433594-8.347656zm0 0"/></svg>